#!OML:ASF E:\acrobat2\Project_11_07_03\Capture day 1\Session 1\Acrobat.ASF
:FULLY-SPECIFIED
:DEGREES
401
root 11.4578 17.8341 26.9291 -173.698 -47.8754 -180.853
lowerback 1.07941 -3.48836 -4.00705
upperback 3.32511 -4.81135 -5.27939
thorax 2.69368 -2.55201 -3.27553
lowerneck 3.77439 14.0204 4.37309
upperneck -8.88514 18.8972 -2.12353
head -2.86932 9.28424 -1.96795
rclavicle -2.8625e-014 -9.70069e-014
rhumerus -57.8079 -16.6604 -24.5488
rradius 47.3944
rwrist -29.3425
rhand -12.8493 -45.5822
rfingers 7.12502
rthumb 13.2384 -75.1418
lclavicle -2.8625e-014 -9.70069e-014
lhumerus 48.584 -66.8209 44.8356
lradius 33.5553
lwrist 15.1501
lhand -17.1516 -13.6678
lfingers 7.12502
lthumb 9.08909 16.1164
rfemur -6.11088 23.1685 -0.442965
rtibia -2.51575
rfoot -31.2093 -36.8454
rtoes 24.089
lfemur 0.185102 8.44802 -11.5074
ltibia 19.7418
lfoot -25.6915 -8.1889
ltoes 32.2432
402
root 11.454 17.8272 26.9275 -173.61 -47.6378 -180.967
lowerback 0.860415 -3.47748 -4.00026
upperback 3.2082 -4.79705 -5.51665
thorax 2.67538 -2.54678 -3.5355
lowerneck 3.81256 14.0232 4.55451
upperneck -8.99661 18.9203 -2.04165
head -2.90486 9.2816 -1.97869
rclavicle -4.49253e-014 3.18055e-015
rhumerus -58.8524 -16.9103 -24.6577
rradius 47.5841
rwrist -29.5065
rhand -13.1279 -45.6394
rfingers 7.12502
rthumb 12.9699 -75.2163
lclavicle -4.49253e-014 3.18055e-015
lhumerus 50.7596 -68.0721 43.3852
lradius 34.2553
lwrist 14.9064
lhand -16.8308 -14.0638
lfingers 7.12502
lthumb 9.3986 15.7067
rfemur -6.24883 22.98 -0.618402
rtibia -2.545
rfoot -30.7266 -36.6435
rtoes 23.3793
lfemur 0.316773 8.39352 -11.6944
ltibia 19.5433
lfoot -25.8467 -8.0753
ltoes 32.1346
403
root 11.4549 17.8247 26.9197 -173.422 -47.4347 -181.324
lowerback 0.693953 -3.47225 -4.26027
upperback 3.14595 -4.7968 -5.78433
thorax 2.70339 -2.55873 -3.68027
lowerneck 3.70349 14.1032 4.61753
upperneck -8.93596 19.0414 -1.79914
head -2.87976 9.32917 -1.90327
rclavicle -4.05521e-014 -9.22361e-014
rhumerus -59.8254 -17.3206 -24.8437
rradius 47.6635
rwrist -29.3144
rhand -13.3171 -45.7666
rfingers 7.12502
rthumb 12.7875 -75.355
lclavicle -4.05521e-014 -9.22361e-014
lhumerus 53.5755 -69.3081 41.144
lradius 35.1366
lwrist 14.5046
lhand -16.7379 -14.2502
lfingers 7.12502
lthumb 9.48826 15.5162
rfemur -6.31791 22.5504 -0.910955
rtibia -2.50262
rfoot -29.9134 -36.4008
rtoes 21.8242
lfemur 0.595434 8.39286 -12.0095
ltibia 19.2661
lfoot -25.8595 -8.28462
ltoes 32.9371
404
root 11.4572 17.8238 26.9099 -173.559 -47.3044 -181.288
lowerback 0.57716 -3.51687 -4.33565
upperback 3.12611 -4.85496 -5.89758
thorax 2.74343 -2.59205 -3.7659
lowerneck 3.45955 14.1552 4.39446
upperneck -8.96768 19.1065 -1.47571
head -2.90052 9.35191 -1.76049
rclavicle -7.15625e-014 -1.04958e-013
rhumerus -60.5521 -17.7002 -25.0315
rradius 47.5768
rwrist -29.2006
rhand -13.2094 -45.6809
rfingers 7.12502
rthumb 12.8913 -75.2627
lclavicle -7.15625e-014 -1.04958e-013
lhumerus 55.1146 -70.1502 40.342
lradius 35.8709
lwrist 13.3851
lhand -16.1695 -14.8394
lfingers 7.12502
lthumb 10.0367 14.9013
rfemur -6.41759 21.5383 -0.821058
rtibia -2.13263
rfoot -28.1299 -36.0456
rtoes 18.5349
lfemur 0.916082 8.39207 -11.9492
ltibia 19.0033
lfoot -25.9497 -8.23064
ltoes 33.3338
405
root 11.4584 17.8251 26.8994 -173.921 -47.3092 -180.997
lowerback 0.550778 -3.59546 -4.24651
upperback 3.1213 -4.9586 -5.91774
thorax 2.7407 -2.64129 -3.83958
lowerneck 3.29857 14.2812 4.25708
upperneck -9.01837 19.2706 -1.31168
head -2.91528 9.42846 -1.68584
rclavicle 0 -4.77083e-015
rhumerus -61.277 -17.962 -25.1859
rradius 47.4387
rwrist -29.3798
rhand -13.0741 -45.4167
rfingers 7.12502
rthumb 13.0218 -74.9902
lclavicle 0 -4.77083e-015
lhumerus 56.4552 -70.9418 39.6518
lradius 36.6708
lwrist 12.4474
lhand -15.4657 -15.8347
lfingers 7.12502
lthumb 10.7156 13.872
rfemur -6.44671 20.4228 -0.485808
rtibia -1.61576
rfoot -26.4068 -35.5498
rtoes 15.5467
lfemur 1.24212 8.1817 -11.7058
ltibia 18.7075
lfoot -26.0491 -7.94944
ltoes 33.2813
406
root 11.4463 17.8191 26.9327 -173.816 -46.7643 -180.982
lowerback 0.494099 -3.49347 -3.82789
upperback 2.92241 -4.83817 -6.09168
thorax 2.52044 -2.57119 -4.2419
lowerneck 3.25299 14.46 4.21929
upperneck -9.01204 19.5057 -1.32374
head -2.90094 9.54831 -1.6831
rclavicle -3.69739e-014 1.90833e-014
rhumerus -62.0333 -18.24 -25.2892
rradius 47.2078
rwrist -29.4414
rhand -13.0565 -45.475
rfingers 7.12502
rthumb 13.0387 -75.0475
lclavicle -3.69739e-014 1.90833e-014
lhumerus 58.9713 -71.9652 37.6249
lradius 37.6665
lwrist 11.8481
lhand -15.2897 -16.5172
lfingers 7.12502
lthumb 10.8854 13.1807
rfemur -7.57683 17.831 -0.925673
rtibia -0.540282
rfoot -23.2832 -33.6533
rtoes 13.9773
lfemur 1.25008 7.89932 -12.1423
ltibia 18.3599
lfoot -26.638 -7.12758
ltoes 32.6739
